# xmcd CD database file
#
# Track frame offsets:
#	151
#	15706
#	30361
#	42618
#	52097
#	63678
#	76981
#	90060
#	103067
#	118776
#
# Disc length: 1789 seconds
#
# Revision: 2
# Processed by: cddbd v1.5.2PL0 Copyright (c) Steve Scherf et al.
# Submitted via: CDex 1.70beta2
#
DISCID=7c06fb0a
DTITLE=Ty Harwell - Going For Broke
DYEAR=1998
DGENRE=Country
TTITLE0=Going For Broke
TTITLE1=The Glow
TTITLE2=Maybe
TTITLE3=Sing Me To Sleep
TTITLE4=If I Told You
TTITLE5=Give'em To Her
TTITLE6=A Hole Lot Of Daddy In Me
TTITLE7=As The Snow Falls
TTITLE8=I Can Breathe Again
TTITLE9=Don't Return The Key
EXTD=YEAR: 1998
EXTT0=
EXTT1=
EXTT2=
EXTT3=
EXTT4=
EXTT5=
EXTT6=
EXTT7=
EXTT8=
EXTT9=
PLAYORDER=
